<svg id="visual" viewBox="0 0 450 900" width="450" height="900" xmlns="http://www.w3.org/2000/svg" xmlns:xlink="http://www.w3.org/1999/xlink" version="1.1"><path d="M0 237L9.3 243.3C18.7 249.7 37.3 262.3 56.2 264.3C75 266.3 94 257.7 112.8 252.2C131.7 246.7 150.3 244.3 169 242.2C187.7 240 206.3 238 225 242.8C243.7 247.7 262.3 259.3 281.2 259.7C300 260 319 249 337.8 249.8C356.7 250.7 375.3 263.3 394 263.3C412.7 263.3 431.3 250.7 440.7 244.3L450 238L450 0L440.7 0C431.3 0 412.7 0 394 0C375.3 0 356.7 0 337.8 0C319 0 300 0 281.2 0C262.3 0 243.7 0 225 0C206.3 0 187.7 0 169 0C150.3 0 131.7 0 112.8 0C94 0 75 0 56.2 0C37.3 0 18.7 0 9.3 0L0 0Z" fill="#ffd900"></path><path d="M0 184L9.3 178.7C18.7 173.3 37.3 162.7 56.2 157.5C75 152.3 94 152.7 112.8 159.8C131.7 167 150.3 181 169 185.5C187.7 190 206.3 185 225 177.5C243.7 170 262.3 160 281.2 157.2C300 154.3 319 158.7 337.8 157.2C356.7 155.7 375.3 148.3 394 150.7C412.7 153 431.3 165 440.7 171L450 177L450 0L440.7 0C431.3 0 412.7 0 394 0C375.3 0 356.7 0 337.8 0C319 0 300 0 281.2 0C262.3 0 243.7 0 225 0C206.3 0 187.7 0 169 0C150.3 0 131.7 0 112.8 0C94 0 75 0 56.2 0C37.3 0 18.7 0 9.3 0L0 0Z" fill="#8cb000"></path><path d="M0 85L9.3 87.7C18.7 90.3 37.3 95.7 56.2 97.5C75 99.3 94 97.7 112.8 92.8C131.7 88 150.3 80 169 75.2C187.7 70.3 206.3 68.7 225 71.5C243.7 74.3 262.3 81.7 281.2 88.5C300 95.3 319 101.7 337.8 98.3C356.7 95 375.3 82 394 81.2C412.7 80.3 431.3 91.7 440.7 97.3L450 103L450 0L440.7 0C431.3 0 412.7 0 394 0C375.3 0 356.7 0 337.8 0C319 0 300 0 281.2 0C262.3 0 243.7 0 225 0C206.3 0 187.7 0 169 0C150.3 0 131.7 0 112.8 0C94 0 75 0 56.2 0C37.3 0 18.7 0 9.3 0L0 0Z" fill="#008000"></path></svg>