<svg id="visual" viewBox="0 0 900 600" width="900" height="600" xmlns="http://www.w3.org/2000/svg" xmlns:xlink="http://www.w3.org/1999/xlink" version="1.1"><path d="M0 158L18.8 162.2C37.7 166.3 75.3 174.7 112.8 175.8C150.3 177 187.7 171 225.2 167.3C262.7 163.7 300.3 162.3 337.8 161C375.3 159.7 412.7 158.3 450.2 161.5C487.7 164.7 525.3 172.3 562.8 172.5C600.3 172.7 637.7 165.3 675.2 166C712.7 166.7 750.3 175.3 787.8 175.3C825.3 175.3 862.7 166.7 881.3 162.3L900 158L900 0L881.3 0C862.7 0 825.3 0 787.8 0C750.3 0 712.7 0 675.2 0C637.7 0 600.3 0 562.8 0C525.3 0 487.7 0 450.2 0C412.7 0 375.3 0 337.8 0C300.3 0 262.7 0 225.2 0C187.7 0 150.3 0 112.8 0C75.3 0 37.7 0 18.8 0L0 0Z" fill="#ffd900"></path><path d="M0 122L18.8 118.5C37.7 115 75.3 108 112.8 104.7C150.3 101.3 187.7 101.7 225.2 106.5C262.7 111.3 300.3 120.7 337.8 123.7C375.3 126.7 412.7 123.3 450.2 118.3C487.7 113.3 525.3 106.7 562.8 104.7C600.3 102.7 637.7 105.3 675.2 104.3C712.7 103.3 750.3 98.7 787.8 100.3C825.3 102 862.7 110 881.3 114L900 118L900 0L881.3 0C862.7 0 825.3 0 787.8 0C750.3 0 712.7 0 675.2 0C637.7 0 600.3 0 562.8 0C525.3 0 487.7 0 450.2 0C412.7 0 375.3 0 337.8 0C300.3 0 262.7 0 225.2 0C187.7 0 150.3 0 112.8 0C75.3 0 37.7 0 18.8 0L0 0Z" fill="#8cb000"></path><path d="M0 56L18.8 57.8C37.7 59.7 75.3 63.3 112.8 64.7C150.3 66 187.7 65 225.2 61.8C262.7 58.7 300.3 53.3 337.8 50.2C375.3 47 412.7 46 450.2 47.8C487.7 49.7 525.3 54.3 562.8 58.8C600.3 63.3 637.7 67.7 675.2 65.3C712.7 63 750.3 54 787.8 53.5C825.3 53 862.7 61 881.3 65L900 69L900 0L881.3 0C862.7 0 825.3 0 787.8 0C750.3 0 712.7 0 675.2 0C637.7 0 600.3 0 562.8 0C525.3 0 487.7 0 450.2 0C412.7 0 375.3 0 337.8 0C300.3 0 262.7 0 225.2 0C187.7 0 150.3 0 112.8 0C75.3 0 37.7 0 18.8 0L0 0Z" fill="#008000"></path></svg>